<svg xmlns="http://www.w3.org/2000/svg" viewBox="0 0 141.25 80.89"><defs><style>.cls-1,.cls-2{fill:#fff;}.cls-1{fill-rule:evenodd;}</style></defs><title>iconics logo(white)_no slogan</title><g id="Layer_2" data-name="Layer 2"><g id="Layer_1-2" data-name="Layer 1"><path class="cls-1" d="M102.38,51.5C91.46,62.3,78.61,70.64,67,73.57c-13.14,3.32-21.61-1-23.78-10.42C43.31,76.49,51.13,83.51,65,80c12.23-3.09,25.59-13.7,37.67-27.55l.81-.94Z"/><path class="cls-1" d="M96.6,10.33C88,12.07,78.47,17.13,69.51,24.1a13.5,13.5,0,0,1,2.34-.2,11.93,11.93,0,0,1,2.82.31,65.5,65.5,0,0,1,17.55-6.65c11.33-2.31,19,.52,21.66,6.81a12.25,12.25,0,0,1,3.05-.56C116.86,13.28,109.59,7.68,96.6,10.33Z"/><path class="cls-1" d="M94.58,52.11C86.84,57.78,78.76,62,71.2,63.9c-13.14,3.31-21.61-1-23.78-10.43.1,13.35,7.92,20.36,21.81,16.85,9.3-2.36,19.26-9,28.8-18.21Z"/><path class="cls-1" d="M118.88,23.79l.65,0C124.62,7.29,117.35-2.72,100.81.65,88.55,3.15,74.22,12.42,62.59,24.4h1.6c10-8.13,21.63-14.35,32.24-16.52C112.28,4.65,120.88,11.49,118.88,23.79Z"/><path class="cls-2" d="M30.84,50.49,36,26h5.74L36.59,50.49Z"/><path class="cls-2" d="M36.51,23.86l1.28-6h5.74l-1.28,6Z"/><path class="cls-2" d="M53,34.58,53.36,33c.44-2.08-.08-3.16-1.15-3.16-1.79,0-2.42.94-2.76,2.54l-2.61,12.1c-.29,1.37.1,2.19,1.59,2.19,2,0,2.55-2,2.87-3.52l.47-2.22h5.75l-.64,3c-.9,4.21-3.93,7.14-9.81,7.14-5.28,0-6.74-2.8-5.68-7.79l2.14-10c1.13-5.32,4.1-7.79,9.35-7.79,4.89,0,7.39,2.08,6.33,7.07l-.44,2.06Z"/><path class="cls-2" d="M75.59,42.7c-1.17,5.51-3.71,8.38-9.52,8.38s-7.21-2.87-6-8.38l2.11-10c1-4.69,4.36-7.3,9.38-7.3s7.18,2.61,6.18,7.3Zm-3.71-9.56c.32-1.5.57-3.29-1.33-3.29s-2.43,1.79-2.75,3.29l-2.13,10c-.3,1.4-.52,3.49,1.34,3.49s2.43-2.09,2.73-3.49Z"/><path class="cls-2" d="M84.85,36.8l-.08.06L82.4,50.49H77L82.15,26h5.9L89.58,39.7h.1L92,26h5.44L92.28,50.49H86.41Z"/><path class="cls-2" d="M95.69,50.49,100.88,26h5.74l-5.19,24.46Z"/><path class="cls-2" d="M117.87,34.58,118.2,33c.45-2.08-.07-3.16-1.15-3.16-1.79,0-2.42.94-2.76,2.54l-2.6,12.1c-.29,1.37.08,2.19,1.58,2.19,2,0,2.56-2,2.87-3.52l.48-2.22h5.74l-.64,3c-.9,4.21-3.93,7.14-9.8,7.14-5.29,0-6.75-2.8-5.69-7.79l2.14-10c1.13-5.32,4.1-7.79,9.35-7.79,4.9,0,7.39,2.08,6.33,7.07l-.44,2.06Z"/><path class="cls-2" d="M129.49,42.31,129.12,44c-.3,1.4-.1,2.64,1.72,2.64a2.74,2.74,0,0,0,2.44-2.45c.44-2-1.09-2.83-2.39-3.75a12,12,0,0,1-3.66-3.19,6.26,6.26,0,0,1-.63-4.9c1-4.6,4.25-6.94,8.69-6.94,5,0,6.83,3.32,5.59,7.92h-5.29c.24-1.43.72-3.39-1.14-3.52a2.17,2.17,0,0,0-2.34,1.63c-.47,1.47.12,2.22,1.1,3,1.86,1.37,3.53,2.22,4.61,3.46s1.51,2.87.88,5.84c-1,4.69-4.16,7.3-8.92,7.3-5.26,0-6.85-2.93-6.17-6.16l.56-2.61Z"/><polygon class="cls-2" points="0 25.15 0 51.36 24.71 38.26 0 25.15"/></g></g></svg>